<svg xmlns="http://www.w3.org/2000/svg" viewBox="0 0 48 48" role="img" aria-labelledby="title">
  <title id="title">YouTube</title>
  <rect width="48" height="48" rx="12" fill="#ff0033"/>
  <path d="M34.8 18.3c-.3-1.2-1.2-2.1-2.4-2.4C30.3 15.3 24 15.3 24 15.3s-6.3 0-8.4.6c-1.2.3-2.1 1.2-2.4 2.4-.6 2.1-.6 5.7-.6 5.7s0 3.6.6 5.7c.3 1.2 1.2 2.1 2.4 2.4 2.1.6 8.4.6 8.4.6s6.3 0 8.4-.6c1.2-.3 2.1-1.2 2.4-2.4.6-2.1.6-5.7.6-5.7s0-3.6-.6-5.7z" fill="#fff"/>
  <path d="M21.7 28.1v-8.2l7.2 4.1-7.2 4.1z" fill="#ff0033"/>
</svg>
